Coordinates
version=1
nRows=11
nColumns=40
inDegrees=yes

Units are S.I. units (second, meters, Newtons, ...)
If the header above contains a line with 'inDegrees', this indicates whether rotational values are in degrees (yes) or radians (no).

endheader
time	pelvis_tilt	pelvis_list	pelvis_rotation	pelvis_tx	pelvis_ty	pelvis_tz	hip_flexion_r	hip_adduction_r	hip_rotation_r	knee_angle_r	knee_angle_r_beta	ankle_angle_r	subtalar_angle_r	mtp_angle_r	hip_flexion_l	hip_adduction_l	hip_rotation_l	knee_angle_l	knee_angle_l_beta	ankle_angle_l	subtalar_angle_l	mtp_angle_l	lumbar_extension	lumbar_bending	lumbar_rotation	arm_flex_r	arm_add_r	arm_rot_r	elbow_flex_r	pro_sup_r	wrist_flex_r	wrist_dev_r	arm_flex_l	arm_add_l	arm_rot_l	elbow_flex_l	pro_sup_l	wrist_flex_l	wrist_dev_l
      1.90000000	     15.92096545	     -0.78405342	      0.83018509	     -0.27947628	      1.06247112	     -1.06412911	      9.87458406	     -0.14589966	      1.25668380	      1.26212262	      0.02202820	     -8.92441178	      0.00000000	      0.00000000	     -7.19859427	      1.73947325	     -9.21555368	     21.11335094	      0.36849749	      0.16071835	      0.00000000	      0.00000000	    -21.32420491	     -4.06504261	      2.86108554	     66.78840760	     -3.09276402	     24.26822285	     39.84361983	     86.71948544	      0.00000000	      0.00000000	     76.91610838	     -8.30018000	     50.35970799	     40.07501999	     82.51608030	      0.00000000	      0.00000000
      1.90500000	     15.82557005	     -0.75672695	      0.88279702	     -0.27979126	      1.06215196	     -1.06418713	     10.03120387	     -0.19776689	      1.20703843	      1.28614372	      0.02244744	     -8.92491008	      0.00000000	      0.00000000	     -6.95491309	      1.73288514	     -9.22069984	     21.36207845	      0.37283860	      0.22485686	      0.00000000	      0.00000000	    -21.27415005	     -4.09323955	      2.74268188	     67.01916829	     -3.08203099	     24.66770800	     39.83016127	     86.61494869	      0.00000000	      0.00000000	     77.11091780	     -8.24330639	     50.46967941	     40.01131456	     82.88412209	      0.00000000	      0.00000000
      1.91000000	     15.76912710	     -0.72573817	      0.89763004	     -0.28012030	      1.06185127	     -1.06417077	     10.11344235	     -0.24869815	      1.36960939	      1.23393748	      0.02153627	     -8.97203378	      0.00000000	      0.00000000	     -6.79100185	      1.74937960	     -9.24244387	     21.53166903	      0.37579852	      0.13364235	      0.00000000	      0.00000000	    -21.26914272	     -4.13953846	      2.65196392	     67.37173868	     -3.12784426	     25.31685445	     39.74268991	     85.96522705	      0.00000000	      0.00000000	     77.36228197	     -8.36163726	     51.20057871	     40.35865119	     77.90072459	      0.00000000	      0.00000000
      1.91500000	     15.70714642	     -0.72080046	      0.94580924	     -0.28047482	      1.06153102	     -1.06418125	     10.27429927	     -0.26929249	      1.18574168	      1.34889957	      0.02354274	     -8.94764773	      0.00000000	      0.00000000	     -6.56842958	      1.71660463	     -9.21951907	     21.79967274	      0.38047607	      0.35629138	      0.00000000	      0.00000000	    -21.24304253	     -4.14262653	      2.56280656	     67.59073601	     -2.96105650	     25.16309984	     39.52481051	     86.75579445	      0.00000000	      0.00000000	     77.49315736	     -8.11879294	     50.57934618	     39.86228843	     82.53765351	      0.00000000	      0.00000000
      1.92000000	     15.72666080	     -0.72710447	      0.99286591	     -0.28089348	      1.06126445	     -1.06419088	     10.32357457	     -0.28198598	      1.15953078	      1.36215704	      0.02377413	     -9.00777537	      0.00000000	      0.00000000	     -6.44929705	      1.69444253	     -9.12977076	     22.03056143	      0.38450583	      0.47236103	      0.00000000	      0.00000000	    -21.32858326	     -4.14915389	      2.51864090	     67.85600587	     -2.99830287	     25.43250646	     39.46958636	     86.69771461	      0.00000000	      0.00000000	     77.81797975	     -8.08855582	     51.11502947	     39.87508705	     82.23875082	      0.00000000	      0.00000000
      1.92500000	     15.69718378	     -0.76186349	      1.06385697	     -0.28118367	      1.06099257	     -1.06421936	     10.38393600	     -0.27083420	      1.17257217	      1.35694822	      0.02368321	     -8.98566345	      0.00000000	      0.00000000	     -6.29044023	      1.64264181	     -9.00101702	     22.23777398	      0.38812237	      0.47227977	      0.00000000	      0.00000000	    -21.34811437	     -4.08988233	      2.38364509	     68.15178098	     -2.86878341	     25.71424735	     39.28830856	     86.87525071	      0.00000000	      0.00000000	     77.98281055	     -8.11656342	     51.47812320	     39.93881494	     78.83678014	      0.00000000	      0.00000000
      1.93000000	     15.59836024	     -0.74763909	      1.08328930	     -0.28164521	      1.06053095	     -1.06416490	     10.57739195	     -0.29010293	      1.13041813	      1.41482535	      0.02469336	     -9.05733736	      0.00000000	      0.00000000	     -5.98602643	      1.62322622	     -9.09910106	     22.58823194	      0.39423902	      0.71421825	      0.00000000	      0.00000000	    -21.31344192	     -4.12435104	      2.33304572	     68.37091352	     -2.83986599	     25.93321845	     39.29797674	     86.62781512	      0.00000000	      0.00000000	     78.20720582	     -7.99490237	     51.40910008	     39.72270419	     82.86546045	      0.00000000	      0.00000000
      1.93500000	     15.62300457	     -0.77433738	      1.20783941	     -0.28192069	      1.06027123	     -1.06427459	     10.58635471	     -0.29238599	      1.02516370	      1.42184310	      0.02481584	     -9.01326954	      0.00000000	      0.00000000	     -5.86581516	      1.56941385	     -8.97956297	     22.83527541	      0.39855074	      0.76507729	      0.00000000	      0.00000000	    -21.38939861	     -4.06355302	      2.17527788	     68.64338272	     -2.83937452	     26.33386456	     39.12072844	     86.67457182	      0.00000000	      0.00000000	     78.39591517	     -8.00797276	     51.59961290	     39.72888947	     82.60893759	      0.00000000	      0.00000000
      1.94000000	     15.56698132	     -0.79136534	      1.24395366	     -0.28233522	      1.05984157	     -1.06426402	     10.70521246	     -0.28329867	      1.08625114	      1.44487091	      0.02521775	     -9.05640287	      0.00000000	      0.00000000	     -5.61605196	      1.52775704	     -8.96747728	     23.16451187	      0.40429700	      0.90287615	      0.00000000	      0.00000000	    -21.40231327	     -4.06097051	      2.14874145	     68.85671016	     -2.85728942	     26.50966250	     39.14018951	     86.64167204	      0.00000000	      0.00000000	     78.61503304	     -7.88170044	     51.72684273	     39.57492738	     82.79000363	      0.00000000	      0.00000000
      1.94500000	     15.56151259	     -0.83832902	      1.31189713	     -0.28268848	      1.05937263	     -1.06430875	     10.73932639	     -0.25365869	      1.14078845	      1.42067128	      0.02479539	     -9.01167715	      0.00000000	      0.00000000	     -5.42754289	      1.45161082	     -8.89727717	     23.49785086	      0.41011486	      1.12082719	      0.00000000	      0.00000000	    -21.45047117	     -4.00082303	      2.08198504	     69.09623509	     -2.88425810	     26.77329510	     39.08793258	     86.67378120	      0.00000000	      0.00000000	     78.82737019	     -7.81898266	     51.90370876	     39.49721633	     82.52080664	      0.00000000	      0.00000000
      1.95000000	     15.43913812	     -0.92648791	      1.37392170	     -0.28330605	      1.05869775	     -1.06434095	     10.96165060	     -0.17779368	      1.14260025	      1.44823840	      0.02527653	     -9.06815017	      0.00000000	      0.00000000	     -5.03752131	      1.33438013	     -8.81151096	     23.94508183	      0.41792052	      1.36107901	      0.00000000	      0.00000000	    -21.41104071	     -3.90886961	      2.06270968	     69.33645638	     -2.88654564	     26.91563220	     39.04842128	     86.60059224	      0.00000000	      0.00000000	     79.06971257	     -7.73296596	     52.14477090	     39.42013310	     82.95165061	      0.00000000	      0.00000000
